<svg id="visual" viewBox="0 0 960 540" width="960" height="540" xmlns="http://www.w3.org/2000/svg" xmlns:xlink="http://www.w3.org/1999/xlink" version="1.1"><rect x="0" y="0" width="960" height="540" fill="#171717"></rect><defs><linearGradient id="grad1_0" x1="43.8%" y1="0%" x2="100%" y2="100%"><stop offset="14.444444444444446%" stop-color="#111111" stop-opacity="1"></stop><stop offset="85.55555555555554%" stop-color="#111111" stop-opacity="1"></stop></linearGradient></defs><defs><linearGradient id="grad1_1" x1="43.8%" y1="0%" x2="100%" y2="100%"><stop offset="14.444444444444446%" stop-color="#111111" stop-opacity="1"></stop><stop offset="85.55555555555554%" stop-color="#141414" stop-opacity="1"></stop></linearGradient></defs><defs><linearGradient id="grad1_2" x1="43.8%" y1="0%" x2="100%" y2="100%"><stop offset="14.444444444444446%" stop-color="#171717" stop-opacity="1"></stop><stop offset="85.55555555555554%" stop-color="#141414" stop-opacity="1"></stop></linearGradient></defs><defs><linearGradient id="grad2_0" x1="0%" y1="0%" x2="56.3%" y2="100%"><stop offset="14.444444444444446%" stop-color="#111111" stop-opacity="1"></stop><stop offset="85.55555555555554%" stop-color="#111111" stop-opacity="1"></stop></linearGradient></defs><defs><linearGradient id="grad2_1" x1="0%" y1="0%" x2="56.3%" y2="100%"><stop offset="14.444444444444446%" stop-color="#141414" stop-opacity="1"></stop><stop offset="85.55555555555554%" stop-color="#111111" stop-opacity="1"></stop></linearGradient></defs><defs><linearGradient id="grad2_2" x1="0%" y1="0%" x2="56.3%" y2="100%"><stop offset="14.444444444444446%" stop-color="#141414" stop-opacity="1"></stop><stop offset="85.55555555555554%" stop-color="#171717" stop-opacity="1"></stop></linearGradient></defs><g transform="translate(960, 0)"><path d="M0 486C-69.8 485.6 -139.7 485.1 -186 449C-232.3 412.9 -255.1 341.1 -292 292C-329 243 -380.1 216.7 -414.8 171.8C-449.5 126.9 -467.8 63.5 -486 0L0 0Z" fill="#161616"></path><path d="M0 324C-46.6 323.7 -93.1 323.4 -124 299.3C-154.9 275.3 -170.1 227.4 -194.7 194.7C-219.3 162 -253.4 144.5 -276.5 114.5C-299.7 84.6 -311.8 42.3 -324 0L0 0Z" fill="#131313"></path><path d="M0 162C-23.3 161.9 -46.6 161.7 -62 149.7C-77.4 137.6 -85 113.7 -97.3 97.3C-109.7 81 -126.7 72.2 -138.3 57.3C-149.8 42.3 -155.9 21.2 -162 0L0 0Z" fill="#111111"></path></g><g transform="translate(0, 540)"><path d="M0 -486C52.8 -448.4 105.6 -410.7 160.3 -387.1C215.1 -363.5 271.9 -353.9 323.9 -323.9C375.8 -293.8 422.8 -243.4 449 -186C475.2 -128.6 480.6 -64.3 486 0L0 0Z" fill="#161616"></path><path d="M0 -324C35.2 -298.9 70.4 -273.8 106.9 -258.1C143.4 -242.3 181.3 -235.9 215.9 -215.9C250.5 -195.9 281.9 -162.2 299.3 -124C316.8 -85.7 320.4 -42.9 324 0L0 0Z" fill="#131313"></path><path d="M0 -162C17.6 -149.5 35.2 -136.9 53.4 -129C71.7 -121.2 90.6 -118 108 -108C125.3 -97.9 140.9 -81.1 149.7 -62C158.4 -42.9 160.2 -21.4 162 0L0 0Z" fill="#111111"></path></g></svg>