<svg id="visual" viewBox="0 0 900 600" width="900" height="600" xmlns="http://www.w3.org/2000/svg" xmlns:xlink="http://www.w3.org/1999/xlink" version="1.1"><path d="M0 25L18.8 25C37.7 25 75.3 25 112.8 39C150.3 53 187.7 81 225.2 82C262.7 83 300.3 57 337.8 53C375.3 49 412.7 67 450.2 71C487.7 75 525.3 65 562.8 56C600.3 47 637.7 39 675.2 41C712.7 43 750.3 55 787.8 69C825.3 83 862.7 99 881.3 107L900 115L900 0L881.3 0C862.7 0 825.3 0 787.8 0C750.3 0 712.7 0 675.2 0C637.7 0 600.3 0 562.8 0C525.3 0 487.7 0 450.2 0C412.7 0 375.3 0 337.8 0C300.3 0 262.7 0 225.2 0C187.7 0 150.3 0 112.8 0C75.3 0 37.7 0 18.8 0L0 0Z" fill="#4d4c4c"></path><path d="M0 313L18.8 319C37.7 325 75.3 337 112.8 313C150.3 289 187.7 229 225.2 217C262.7 205 300.3 241 337.8 247C375.3 253 412.7 229 450.2 207C487.7 185 525.3 165 562.8 151C600.3 137 637.7 129 675.2 164C712.7 199 750.3 277 787.8 289C825.3 301 862.7 247 881.3 220L900 193L900 113L881.3 105C862.7 97 825.3 81 787.8 67C750.3 53 712.7 41 675.2 39C637.7 37 600.3 45 562.8 54C525.3 63 487.7 73 450.2 69C412.7 65 375.3 47 337.8 51C300.3 55 262.7 81 225.2 80C187.7 79 150.3 51 112.8 37C75.3 23 37.7 23 18.8 23L0 23Z" fill="#3f3e3e"></path><path d="M0 379L18.8 387C37.7 395 75.3 411 112.8 422C150.3 433 187.7 439 225.2 419C262.7 399 300.3 353 337.8 341C375.3 329 412.7 351 450.2 383C487.7 415 525.3 457 562.8 456C600.3 455 637.7 411 675.2 393C712.7 375 750.3 383 787.8 390C825.3 397 862.7 403 881.3 406L900 409L900 191L881.3 218C862.7 245 825.3 299 787.8 287C750.3 275 712.7 197 675.2 162C637.7 127 600.3 135 562.8 149C525.3 163 487.7 183 450.2 205C412.7 227 375.3 251 337.8 245C300.3 239 262.7 203 225.2 215C187.7 227 150.3 287 112.8 311C75.3 335 37.7 323 18.8 317L0 311Z" fill="#313030"></path><path d="M0 451L18.8 452C37.7 453 75.3 455 112.8 469C150.3 483 187.7 509 225.2 507C262.7 505 300.3 475 337.8 459C375.3 443 412.7 441 450.2 453C487.7 465 525.3 491 562.8 486C600.3 481 637.7 445 675.2 439C712.7 433 750.3 457 787.8 463C825.3 469 862.7 457 881.3 451L900 445L900 407L881.3 404C862.7 401 825.3 395 787.8 388C750.3 381 712.7 373 675.2 391C637.7 409 600.3 453 562.8 454C525.3 455 487.7 413 450.2 381C412.7 349 375.3 327 337.8 339C300.3 351 262.7 397 225.2 417C187.7 437 150.3 431 112.8 420C75.3 409 37.7 393 18.8 385L0 377Z" fill="#282727"></path><path d="M0 529L18.8 538C37.7 547 75.3 565 112.8 569C150.3 573 187.7 563 225.2 551C262.7 539 300.3 525 337.8 518C375.3 511 412.7 511 450.2 522C487.7 533 525.3 555 562.8 560C600.3 565 637.7 553 675.2 544C712.7 535 750.3 529 787.8 536C825.3 543 862.7 563 881.3 573L900 583L900 443L881.3 449C862.7 455 825.3 467 787.8 461C750.3 455 712.7 431 675.2 437C637.7 443 600.3 479 562.8 484C525.3 489 487.7 463 450.2 451C412.7 439 375.3 441 337.8 457C300.3 473 262.7 503 225.2 505C187.7 507 150.3 481 112.8 467C75.3 453 37.7 451 18.8 450L0 449Z" fill="#242323"></path><path d="M0 601L18.8 601C37.7 601 75.3 601 112.8 601C150.3 601 187.7 601 225.2 601C262.7 601 300.3 601 337.8 601C375.3 601 412.7 601 450.2 601C487.7 601 525.3 601 562.8 601C600.3 601 637.7 601 675.2 601C712.7 601 750.3 601 787.8 601C825.3 601 862.7 601 881.3 601L900 601L900 581L881.3 571C862.7 561 825.3 541 787.8 534C750.3 527 712.7 533 675.2 542C637.7 551 600.3 563 562.8 558C525.3 553 487.7 531 450.2 520C412.7 509 375.3 509 337.8 516C300.3 523 262.7 537 225.2 549C187.7 561 150.3 571 112.8 567C75.3 563 37.7 545 18.8 536L0 527Z" fill="#201f1f"></path></svg>